<?xml version="1.0" encoding="utf-8"?>
<!-- Generator: Adobe Illustrator 27.6.1, SVG Export Plug-In . SVG Version: 6.00 Build 0)  -->
<svg version="1.1" id="Layer_1" xmlns="http://www.w3.org/2000/svg" xmlns:xlink="http://www.w3.org/1999/xlink" x="0px" y="0px"
	 viewBox="0 0 240 240" style="enable-background:new 0 0 240 240;" xml:space="preserve">
<style type="text/css">
	.st0{clip-path:url(#SVGID_00000067198948470906718860000014030212889705669045_);}
	.st1{clip-path:url(#SVGID_00000150805212349876436050000009916579530181787010_);}
	.st2{clip-path:url(#SVGID_00000152237722355749586990000014341162610733182848_);}
	.st3{clip-path:url(#SVGID_00000119095791120303219950000012491686646304566672_);}
	.st4{fill:#CCCCCC;}
</style>
<g>
	<defs>
		<rect id="SVGID_1_" x="49.3" y="48.3" width="142.7" height="144"/>
	</defs>
	<clipPath id="SVGID_00000174599793230705736630000017945158578774798732_">
		<use xlink:href="#SVGID_1_"  style="overflow:visible;"/>
	</clipPath>
	<g style="clip-path:url(#SVGID_00000174599793230705736630000017945158578774798732_);">
		<g>
			<defs>
				
					<rect id="SVGID_00000064317044153863231530000014795933919301534602_" x="50.7" y="50.9" transform="matrix(1.860404e-02 -0.9998 0.9998 1.860404e-02 -2.3746 238.4792)" width="139.1" height="139.1"/>
			</defs>
			<clipPath id="SVGID_00000102527344761573982490000016005516602905372801_">
				<use xlink:href="#SVGID_00000064317044153863231530000014795933919301534602_"  style="overflow:visible;"/>
			</clipPath>
			<g style="clip-path:url(#SVGID_00000102527344761573982490000016005516602905372801_);">
				<defs>
					
						<rect id="SVGID_00000015349004403022890850000016104471116295540866_" x="50.7" y="50.9" transform="matrix(1.860404e-02 -0.9998 0.9998 1.860404e-02 -2.3746 238.4792)" width="139.1" height="139.1"/>
				</defs>
				<clipPath id="SVGID_00000122714978600136358480000016006702249883795880_">
					<use xlink:href="#SVGID_00000015349004403022890850000016104471116295540866_"  style="overflow:visible;"/>
				</clipPath>
				<g style="clip-path:url(#SVGID_00000122714978600136358480000016006702249883795880_);">
					<defs>
						
							<rect id="SVGID_00000014635891795398190420000003031360487174075271_" x="50.7" y="50.9" transform="matrix(1.860404e-02 -0.9998 0.9998 1.860404e-02 -2.3746 238.4792)" width="139.1" height="139.1"/>
					</defs>
					<clipPath id="SVGID_00000071536189357936419840000006872114878902429357_">
						<use xlink:href="#SVGID_00000014635891795398190420000003031360487174075271_"  style="overflow:visible;"/>
					</clipPath>
					<g style="clip-path:url(#SVGID_00000071536189357936419840000006872114878902429357_);">
						<path class="st4" d="M139.1,120.7L191,52.2l-5.4-0.1L81.6,189.3l5.4,0.1l32.8-43.3l31.1,44.5l37.5,0.7L139.1,120.7z
							 M122.6,99.4l0.8-1.1l-33.6-48l-37.5-0.7l49.3,70.4l-52,68.7l5.4,0.1L122.6,99.4L122.6,99.4z"/>
					</g>
				</g>
			</g>
		</g>
	</g>
</g>
<g>
	<g transform="translate(67.104275, 115.852781)">
		<g>
			<path class="st4" d="M15.7,39.4l2.6,2L15,45.8l2.6,1.9l3.2-4.3l2.6,2l-3.2,4.3l2.6,2l3.4-4.4l2.6,2l-5.6,7.4l-13-9.8L15.7,39.4z"
				/>
		</g>
	</g>
</g>
<g>
	<g transform="translate(72.26926, 109.014579)">
		<g>
			<path class="st4" d="M24.8,54.4L11.3,44.1l2.1-2.8l13.5,10.2L24.8,54.4z"/>
		</g>
	</g>
</g>
<g>
	<g transform="translate(74.914088, 105.51295)">
		<g>
			<path class="st4" d="M28.2,42.3l-4.4,5.9c0.6,0.4,1.1,0.6,1.7,0.4c0.6-0.2,1-0.5,1.3-0.9c0.3-0.5,0.6-0.9,0.6-1.2
				c0.1-0.3,0.1-0.8,0-1.4l2.5-1.3c0.8,1.9,0.4,3.8-1,5.8c-0.9,1.2-2.1,2-3.6,2.2c-1.5,0.2-2.8-0.1-4-1c-1.2-0.9-1.9-2.1-2-3.6
				c-0.2-1.5,0.2-2.9,1.1-4.1c1-1.3,2.1-2,3.5-2.3c1.3-0.2,2.7,0.1,4.1,1.2C28,42.1,28.1,42.2,28.2,42.3z M22.3,46.9l2.3-3.1
				c-0.5-0.2-0.9-0.3-1.4-0.2c-0.4,0.1-0.8,0.3-1.1,0.8c-0.3,0.5-0.5,0.9-0.5,1.4C21.7,46.2,21.9,46.6,22.3,46.9z"/>
		</g>
	</g>
</g>
<g>
	<g transform="translate(80.28389, 98.403579)">
		<g>
			<path class="st4" d="M24.7,42c-0.4,0.5-0.5,1.1-0.4,1.8c0.1,0.7,0.4,1.2,1,1.6c0.6,0.4,1.2,0.6,1.8,0.5c0.7-0.1,1.2-0.4,1.6-0.9
				c0.2-0.3,0.3-0.5,0.4-0.8c0.1-0.3,0.2-0.5,0.2-0.6v-0.2l2.7,0.5c0,0.1,0,0.2,0,0.4c0,0.2-0.1,0.6-0.4,1.1
				c-0.2,0.6-0.5,1.1-0.9,1.7c-0.9,1.2-2.1,1.9-3.6,2.2c-1.5,0.3-2.8,0-4-0.9c-1.2-0.9-1.8-2.1-2-3.6c-0.2-1.5,0.2-2.9,1.1-4.1
				c0.4-0.6,0.8-1,1.3-1.4c0.5-0.3,0.8-0.6,1.1-0.7l0.4-0.1l1.2,2.4C25.6,41.1,25.1,41.4,24.7,42z"/>
		</g>
	</g>
</g>
<g>
	<g transform="translate(84.656317, 92.614688)">
		<g>
			<path class="st4" d="M21.2,42.3l-3-2.3l2.1-2.8l3,2.3l1.3-1.7l2.1,1.6l-1.3,1.7l2.6,2c0.7,0.6,1.3,0.6,1.6,0.2
				c0.1-0.1,0.1-0.2,0.2-0.4c0-0.2,0.1-0.3,0.1-0.4l0-0.1l2.7,1c-0.1,0.8-0.5,1.7-1,2.4c-0.4,0.5-0.8,0.9-1.3,1.2
				c-0.5,0.2-0.9,0.3-1.4,0.3c-0.5,0-0.9-0.1-1.3-0.3c-0.4-0.2-0.8-0.4-1.2-0.7l-3.1-2.4l-0.9,1.2l-2.1-1.6L21.2,42.3z"/>
		</g>
	</g>
</g>
<g>
	<g transform="translate(88.17385, 87.957636)">
		<g>
			<path class="st4" d="M30.1,47.3L22,41.3l2.1-2.8l1.2,0.9l0,0c0-0.1-0.1-0.1-0.1-0.2c0-0.1-0.1-0.3-0.1-0.5c0-0.3-0.1-0.6-0.1-0.9
				c0-0.3,0.1-0.6,0.2-0.9c0.1-0.4,0.3-0.7,0.5-1c0.2-0.3,0.5-0.6,0.8-0.8c0.3-0.2,0.5-0.4,0.7-0.5l0.3-0.1l1.5,3
				c-0.6,0.1-1.1,0.5-1.5,1.1c-0.2,0.3-0.4,0.7-0.4,1.1c0,0.3,0,0.7,0.1,0.9c0.1,0.2,0.2,0.5,0.4,0.6c0.1,0.1,0.2,0.2,0.3,0.3
				l4.2,3.2L30.1,47.3z"/>
		</g>
	</g>
</g>
<g>
	<g transform="translate(92.608611, 82.086216)">
		<g>
			<path class="st4" d="M31.2,43.9c-1.5,0.3-2.8,0-4.1-1c-1.2-0.9-1.9-2.2-2-3.7c-0.1-1.5,0.4-3,1.4-4.4c1-1.3,2.3-2.2,3.8-2.5
				c1.5-0.3,2.9,0,4.1,0.9c1.2,0.9,1.9,2.2,2,3.7c0.1,1.5-0.3,3-1.4,4.4C34,42.7,32.7,43.6,31.2,43.9z M28.4,38.4
				c0.1,0.6,0.4,1.1,1,1.6c0.6,0.4,1.1,0.6,1.7,0.5c0.6-0.1,1.1-0.4,1.6-1c0.4-0.5,0.6-1.1,0.5-1.7c-0.1-0.6-0.4-1.1-0.9-1.6
				c-0.6-0.4-1.2-0.6-1.8-0.5c-0.6,0.1-1.2,0.4-1.5,0.9C28.5,37.2,28.3,37.8,28.4,38.4z"/>
		</g>
	</g>
</g>
<g>
	<g transform="translate(98.494908, 74.293031)">
		<g>
			<path class="st4" d="M22.6,35.8l-2.6-2l6.9-9.1l2.6,2l-2.3,3.1l10.4,7.8l-2.2,3l-10.4-7.8L22.6,35.8z"/>
		</g>
	</g>
</g>
<g>
	<g transform="translate(103.802375, 67.26619)">
		<g>
			<path class="st4" d="M37.8,29.5l-4.4,5.9c0.6,0.4,1.1,0.6,1.7,0.4c0.6-0.2,1-0.5,1.3-0.9c0.3-0.5,0.6-0.9,0.6-1.2
				c0.1-0.3,0.1-0.8,0-1.4l2.5-1.3c0.8,1.9,0.4,3.8-1,5.8c-0.9,1.2-2.1,2-3.6,2.2c-1.5,0.2-2.8-0.1-4-1c-1.2-0.9-1.9-2.1-2-3.6
				c-0.2-1.5,0.2-2.9,1.1-4.1c1-1.3,2.1-2,3.5-2.3s2.7,0.1,4.1,1.2C37.7,29.4,37.8,29.5,37.8,29.5z M31.9,34.1l2.3-3.1
				c-0.5-0.2-0.9-0.3-1.4-0.2c-0.4,0.1-0.8,0.3-1.1,0.8c-0.3,0.5-0.5,0.9-0.5,1.4C31.4,33.4,31.6,33.8,31.9,34.1z"/>
		</g>
	</g>
</g>
<g>
	<g transform="translate(109.172177, 60.156819)">
		<g>
			<path class="st4" d="M34.3,29.2c-0.4,0.5-0.5,1.1-0.4,1.8c0.1,0.7,0.4,1.2,1,1.6c0.6,0.4,1.2,0.6,1.8,0.5
				c0.7-0.1,1.2-0.4,1.6-0.9c0.2-0.3,0.3-0.5,0.4-0.8c0.1-0.3,0.2-0.5,0.2-0.6v-0.2l2.7,0.5c0,0.1,0,0.2,0,0.4
				c0,0.2-0.1,0.6-0.4,1.1c-0.2,0.6-0.5,1.1-0.9,1.7c-0.9,1.2-2.1,1.9-3.6,2.2c-1.5,0.3-2.8,0-4-0.9c-1.2-0.9-1.8-2.1-2-3.6
				c-0.2-1.5,0.2-2.9,1.1-4.1c0.4-0.6,0.8-1,1.3-1.4c0.5-0.3,0.8-0.6,1.1-0.7l0.4-0.1l1.2,2.4C35.2,28.3,34.7,28.7,34.3,29.2z"/>
		</g>
	</g>
</g>
<g>
	<g transform="translate(113.544603, 54.367928)">
		<g>
			<path class="st4" d="M38.6,36.1L25,25.9l2.1-2.8l6.3,4.8l0,0c-0.2-1.3,0-2.3,0.7-3.1c0.3-0.4,0.7-0.8,1-1.1
				c0.4-0.3,0.8-0.6,1.3-0.8c0.5-0.2,1-0.2,1.6-0.2c0.6,0.1,1.1,0.3,1.7,0.7l5.3,4L43,30.3l-4.6-3.4c-0.4-0.3-0.9-0.5-1.4-0.4
				c-0.5,0-0.9,0.2-1.3,0.7c-0.3,0.4-0.4,0.9-0.4,1.5c0.1,0.6,0.3,1,0.7,1.3l4.6,3.4L38.6,36.1z"/>
		</g>
	</g>
</g>
<path class="st4" d="M184.4,186.9c0.9-0.9,1.9-1.3,3.2-1.3c1.2,0,2.3,0.4,3.2,1.3c0.9,0.9,1.3,1.9,1.3,3.2c0,1.2-0.4,2.3-1.3,3.2
	c-0.9,0.9-1.9,1.3-3.2,1.3c-1.2,0-2.3-0.4-3.2-1.3c-0.9-0.9-1.3-1.9-1.3-3.2C183.1,188.8,183.5,187.8,184.4,186.9z"/>
<g>
	<g transform="translate(135.907269, 28.86918)">
		<g>
			<path class="st4" d="M52.7,19.5c1.4,0,2.5,0.5,3.5,1.4c0.9,0.9,1.4,2.1,1.4,3.4c0,1.3-0.5,2.5-1.4,3.4c-0.9,0.9-2.1,1.4-3.5,1.4
				c-1.3,0-2.5-0.5-3.4-1.4c-0.9-0.9-1.4-2.1-1.4-3.4c0-1.3,0.5-2.5,1.4-3.4C50.2,20,51.3,19.5,52.7,19.5z"/>
		</g>
	</g>
</g>
<g>
	<g transform="translate(33.720019, 130.460078)">
		<g>
			<path class="st4" d="M18.6,53.4c1.4,0,2.5,0.5,3.5,1.4c0.9,0.9,1.4,2.1,1.4,3.4c0,1.3-0.5,2.5-1.4,3.4c-0.9,0.9-2.1,1.4-3.5,1.4
				c-1.3,0-2.5-0.5-3.4-1.4c-0.9-0.9-1.4-2.1-1.4-3.4c0-1.3,0.5-2.5,1.4-3.4C16.1,53.9,17.3,53.4,18.6,53.4z"/>
		</g>
	</g>
</g>
<g>
	<g transform="translate(58.404119, 130.460078)">
		<g>
			<path class="st4" d="M26.8,53.4c1.4,0,2.5,0.5,3.5,1.4c0.9,0.9,1.4,2.1,1.4,3.4c0,1.3-0.5,2.5-1.4,3.4c-0.9,0.9-2.1,1.4-3.5,1.4
				c-1.3,0-2.5-0.5-3.4-1.4c-0.9-0.9-1.4-2.1-1.4-3.4c0-1.3,0.5-2.5,1.4-3.4C24.4,53.9,25.5,53.4,26.8,53.4z"/>
		</g>
	</g>
</g>
<g>
	<g transform="translate(33.720019, 26.642315)">
		<g>
			<path class="st4" d="M18.6,18.8c1.4,0,2.5,0.5,3.5,1.4c0.9,0.9,1.4,2.1,1.4,3.4c0,1.3-0.5,2.5-1.4,3.4c-0.9,0.9-2.1,1.4-3.5,1.4
				c-1.3,0-2.5-0.5-3.4-1.4c-0.9-0.9-1.4-2.1-1.4-3.4c0-1.3,0.5-2.5,1.4-3.4C16.1,19.3,17.3,18.8,18.6,18.8z"/>
		</g>
	</g>
</g>
</svg>
