<?xml version="1.0" encoding="UTF-8"?>
<svg id="Layer_2" data-name="Layer 2" xmlns="http://www.w3.org/2000/svg" viewBox="0 0 236.58 14.85">
  <defs>
    <style>
      .cls-1 {
        fill: #ed2127;
      }

      .cls-2 {
        fill: #009e57;
      }

      .cls-3 {
        fill: #231f20;
      }
    </style>
  </defs>
  <g id="Layer_1-2" data-name="Layer 1">
    <g>
      <polygon class="cls-2" points="110.66 0 102.5 14.54 118.95 14.54 110.66 0"/>
      <polygon class="cls-1" points="38.99 0 30.81 14.57 47.29 14.57 38.99 0"/>
      <path class="cls-3" d="m6.55,3.4c-.53-.3-1.28-.45-2.23-.45h-1.41v3.74h1.83c.92,0,1.57-.19,1.94-.57.37-.38.54-.85.51-1.46-.04-.83-.38-1.12-.63-1.26m3.53,1.15c.09.94-.1,1.8-.55,2.56-.45.75-1.09,1.33-1.93,1.74-.8.39-1.72.59-2.73.59h-1.96v5.16H0V.2h4.16c1.67,0,3.04.31,4.06.93,1.14.68,1.76,1.84,1.86,3.42"/>
      <path class="cls-3" d="m72.92,7.18h1.54c.94.03,1.69-.16,2.23-.56.49-.36.71-.83.71-1.5s-.23-1.14-.72-1.5c-.56-.42-1.21-.62-2.01-.62h-1.76v4.17Zm7.05,6.12l.98,1.3h-3.64l-.24-.32-4.14-5.53v5.85h-2.9V.2h4.25c2.25,0,3.77.46,4.64,1.41.82.9,1.29,2.01,1.4,3.3.07.82-.09,1.62-.47,2.37-.38.75-.94,1.36-1.65,1.82-.32.2-.66.35-1.02.46l2.81,3.73Z"/>
      <path class="cls-3" d="m149.86,4.33c-.88-.91-2.23-1.38-4.02-1.38h-1.38v8.84h1.15c1.58,0,2.9-.37,3.89-1.1.95-.7,1.46-1.76,1.56-3.24.08-1.19-.32-2.21-1.21-3.13m3.2-.48c.63,1.12.93,2.36.9,3.67-.01,1.41-.38,2.67-1.08,3.75-.7,1.07-1.64,1.91-2.8,2.48-1.14.56-2.34.84-3.57.84h-4.96V.2h4.28c1.7,0,3.18.32,4.4.96,1.24.65,2.19,1.55,2.83,2.69"/>
      <path class="cls-3" d="m189.67,5.14c-.43-.72-1.03-1.29-1.77-1.69-.76-.41-1.54-.62-2.33-.62-.83,0-1.58.22-2.31.66-.74.46-1.3,1.02-1.73,1.72-.41.68-.6,1.34-.59,2.02,0,1.12.26,2.05.75,2.76.5.72,1.09,1.24,1.76,1.55.71.31,1.4.47,2.06.45,1.17-.02,2.22-.4,3.22-1.18.94-.73,1.43-1.82,1.51-3.3.04-.87-.15-1.64-.57-2.36m3.48,2.43c-.02,1.41-.41,2.71-1.18,3.83-.75,1.11-1.73,1.98-2.92,2.58-1.18.6-2.4.89-3.65.86-1.22-.04-2.41-.38-3.55-1.01-1.14-.64-2.07-1.53-2.77-2.67-.71-1.15-1.06-2.45-1.04-3.91.03-.89.22-1.78.59-2.65.36-.86.87-1.64,1.51-2.32.64-.69,1.44-1.24,2.37-1.66.94-.42,1.95-.63,3.02-.63,1.35,0,2.64.34,3.82,1,1.17.66,2.12,1.6,2.79,2.77.68,1.17,1.01,2.45,1,3.8"/>
      <polygon class="cls-3" points="225.69 14.4 226.12 14.4 227.61 14.4 229.13 14.4 228.28 13.13 224.2 7.04 228.01 1.26 228.84 0 227.33 0 225.85 0 225.41 0 225.17 .37 222.48 4.47 219.78 .37 219.54 0 219.1 0 217.62 0 216.11 0 216.94 1.26 220.73 7.04 216.68 13.14 215.85 14.4 217.36 14.4 218.88 14.4 219.32 14.4 219.56 14.04 222.49 9.6 225.45 14.04 225.69 14.4"/>
      <path class="cls-3" d="m236.02,2.84l-.1-1.67c0-.22,0-.49-.02-.79h-.03c-.07.25-.17.58-.24.84l-.51,1.57h-.58l-.51-1.61c-.05-.21-.13-.55-.2-.8h-.03c0,.26,0,.53-.02.79l-.1,1.67h-.54l.21-2.84h.84l.49,1.39c.07.22.12.43.19.72h0c.08-.25.14-.5.2-.7l.49-1.41h.81l.22,2.84h-.56Zm-3.06-2.84v.47h-.91v2.37h-.56V.47h-.9v-.47h2.37Z"/>
    </g>
  </g>
</svg>